<svg width="980" height="700" viewBox="0 0 980 700" fill="none" xmlns="http://www.w3.org/2000/svg">
  <defs>
    <linearGradient id="panel" x1="0" y1="0" x2="1" y2="1">
      <stop stop-color="#2B4FD6"/>
      <stop offset="0.5" stop-color="#5B56F0"/>
      <stop offset="1" stop-color="#4C93FF"/>
    </linearGradient>
    <linearGradient id="screen" x1="120" y1="140" x2="340" y2="420" gradientUnits="userSpaceOnUse">
      <stop stop-color="#ECFEFF"/>
      <stop offset="1" stop-color="#E0F2FE"/>
    </linearGradient>
  </defs>
  <rect width="980" height="700" rx="36" fill="#EEF4FF"/>
  <g transform="translate(86 70)">
    <rect x="0" y="0" width="320" height="560" rx="40" fill="#FFFFFF" stroke="#D8E3FF" stroke-width="6"/>
    <rect x="22" y="24" width="276" height="96" rx="28" fill="url(#panel)"/>
    <text x="46" y="60" fill="#FFFFFF" font-size="26" font-family="Inter,Arial" font-weight="700">Enzora</text>
    <text x="46" y="88" fill="#DCE5FF" font-size="16" font-family="Inter,Arial">Smart wound patch</text>

    <rect x="26" y="146" width="268" height="220" rx="26" fill="url(#screen)" stroke="#D8E3FF"/>
    <circle cx="160" cy="224" r="36" fill="#35D3B0"/>
    <path d="M145 224L156 235L178 212" stroke="#FFFFFF" stroke-width="7" stroke-linecap="round" stroke-linejoin="round"/>
    <text x="82" y="300" fill="#12306F" font-size="28" font-family="Inter,Arial" font-weight="700">Wound Healthy</text>
    <text x="87" y="330" fill="#54709E" font-size="16" font-family="Inter,Arial">No infection signals detected</text>

    <rect x="26" y="388" width="268" height="142" rx="22" fill="#FFFFFF" stroke="#D8E3FF"/>
    <text x="48" y="424" fill="#12306F" font-size="22" font-family="Inter,Arial" font-weight="700">Reading Summary</text>
    <line x1="48" y1="448" x2="270" y2="448" stroke="#E5ECFF" stroke-width="2"/>
    <text x="48" y="480" fill="#4C6AA0" font-size="16" font-family="Inter,Arial">Sensor stable</text>
    <text x="48" y="506" fill="#4C6AA0" font-size="16" font-family="Inter,Arial">WiFi connected</text>
  </g>

  <g transform="translate(478 92)">
    <rect x="0" y="0" width="338" height="512" rx="36" fill="#FFFFFF" stroke="#D8E3FF" stroke-width="6"/>
    <rect x="24" y="24" width="290" height="102" rx="28" fill="#FFFFFF" stroke="#E1E8FF"/>
    <circle cx="64" cy="75" r="22" fill="#5B56F0"/>
    <path d="M56 75L63 82L75 66" stroke="#FFFFFF" stroke-width="5" stroke-linecap="round" stroke-linejoin="round"/>
    <text x="96" y="68" fill="#12306F" font-size="22" font-family="Inter,Arial" font-weight="700">Connect device</text>
    <text x="96" y="94" fill="#5E779F" font-size="15" font-family="Inter,Arial">WiFi + sensor status</text>

    <rect x="24" y="148" width="290" height="314" rx="26" fill="url(#panel)"/>
    <text x="50" y="190" fill="#EAF0FF" font-size="14" font-family="Inter,Arial" font-weight="700">REAL-TIME MONITORING</text>
    <text x="50" y="240" fill="#FFFFFF" font-size="34" font-family="Inter,Arial" font-weight="700">Healthy</text>
    <text x="50" y="274" fill="#D9E4FF" font-size="18" font-family="Inter,Arial">No infection signs seen</text>
    <rect x="50" y="314" width="236" height="78" rx="22" fill="#FFFFFF" fill-opacity="0.14" stroke="#FFFFFF" stroke-opacity="0.2"/>
    <text x="68" y="348" fill="#FFFFFF" font-size="16" font-family="Inter,Arial" font-weight="700">Color scan • stable</text>
    <text x="68" y="372" fill="#E8EEFF" font-size="14" font-family="Inter,Arial">Sent to mobile app</text>
    <circle cx="248" cy="352" r="20" fill="#19C89A" fill-opacity="0.95"/>
  </g>
</svg>
